<?xml version="1.0" encoding="UTF-8" standalone="no"?>
<!-- Created with Inkscape (http://www.inkscape.org/) -->

<svg
   version="1.1"
   id="svg1"
   width="206.80286"
   height="87.515617"
   viewBox="0 0 206.80286 87.515617"
   sodipodi:docname="logo.svg"
   xmlns:inkscape="http://www.inkscape.org/namespaces/inkscape"
   xmlns:sodipodi="http://sodipodi.sourceforge.net/DTD/sodipodi-0.dtd"
   xmlns="http://www.w3.org/2000/svg"
   xmlns:svg="http://www.w3.org/2000/svg">
  <sodipodi:namedview
     id="namedview1"
     pagecolor="#ffffff"
     bordercolor="#000000"
     borderopacity="0.25"
     inkscape:showpageshadow="2"
     inkscape:pageopacity="0.0"
     inkscape:pagecheckerboard="0"
     inkscape:deskcolor="#d1d1d1" />
  <defs
     id="defs1">
    <clipPath
       clipPathUnits="userSpaceOnUse"
       id="clipPath16">
      <path
         d="m 227.43451,702.14111 h 275 v 275 h -275 z"
         transform="matrix(1.5796037,0,0,1.5796037,-319.39203,-1069.1047)"
         clip-rule="evenodd"
         id="path16" />
    </clipPath>
    <clipPath
       clipPathUnits="userSpaceOnUse"
       id="clipPath18">
      <path
         d="m 227.43451,702.14111 h 275 v 275 h -275 z"
         transform="matrix(1.5796037,0,0,1.5796037,-319.39203,-1069.1047)"
         clip-rule="evenodd"
         id="path18" />
    </clipPath>
    <clipPath
       clipPathUnits="userSpaceOnUse"
       id="clipPath24">
      <path
         d="m 227.43451,702.14111 h 275 v 275 h -275 z"
         transform="matrix(1.5796037,0,0,1.5796037,-319.39203,-1069.1047)"
         clip-rule="evenodd"
         id="path24" />
    </clipPath>
    <clipPath
       clipPathUnits="userSpaceOnUse"
       id="clipPath26">
      <path
         d="m 227.43451,702.14111 h 275 v 275 h -275 z"
         transform="matrix(1.5796037,0,0,1.5796037,-319.39203,-1069.1047)"
         clip-rule="evenodd"
         id="path26" />
    </clipPath>
  </defs>
  <g
     id="g1"
     transform="translate(-72.806518,-224.68515)">
    <path
       id="path15"
       d="M 288.638,242.67599 469.65601,61.657001 c 0.76406,-0.747074 1.3547,-1.612491 1.77197,-2.596252 0.41727,-0.983765 0.62894,-2.009937 0.63498,-3.078514 0.006,-1.068581 -0.19397,-2.097084 -0.60007,-3.08551 -0.4061,-0.988423 -0.98691,-1.860474 -1.74246,-2.61615 -0.75559,-0.75568 -1.62753,-1.336651 -2.61588,-1.74292 -0.98837,-0.406265 -2.01681,-0.606465 -3.08538,-0.600601 -1.06858,0.0059 -2.09479,0.217338 -3.07865,0.634426 -0.98382,0.417087 -1.84933,1.007595 -2.59653,1.771522 L 277.32397,231.36301 Z"
       style="fill:#2196f3;fill-opacity:1;fill-rule:nonzero;stroke:none"
       transform="matrix(0.20258245,0,0,0.20258245,64.70322,216.58185)"
       clip-path="url(#clipPath16)" />
    <path
       id="path17"
       d="m 265.384,265.92899 11.94001,-11.939 -11.314,-11.31299 -11.938,11.93801 c 4.61506,2.9271 8.38572,6.69844 11.31199,11.31401 z"
       style="fill:#2196f3;fill-opacity:1;fill-rule:nonzero;stroke:none"
       transform="matrix(0.20258245,0,0,0.20258245,64.70322,216.58185)"
       clip-path="url(#clipPath18)" />
    <path
       id="path23"
       d="m 459.88101,213.05499 c -10.879,-8.60699 -30.70999,-3.91499 -51.70001,1.051 -22.961,5.431 -48.694,11.518 -68.75198,0.40899 L 271.19,282.75101 c 1.383,12.54901 -2.83499,25.46301 -10.836,33.46399 -17.483,17.483 -48.916,19.46099 -62.238,19.46099 -3.527,0 -5.784,-0.138 -6.178,-0.164 -1.99943,-0.13333 -3.70762,-0.90847 -5.1246,-2.32544 -1.41695,-1.41696 -2.19208,-3.12515 -2.32539,-5.12457 -0.125,-1.88101 -2.81501,-46.29999 19.3,-68.41501 6.824,-6.824 16.852,-10.879 27.513,-11.128 1.99867,-0.048 3.99135,0.0399 5.978,0.264 l 75.93199,-75.931 c -2.345,-15.052 -0.737,-31.231 0.83401,-46.928 C 316.573,100.68198 318.961,76.839973 304.953,61.35997 291.94299,46.987 265.465,40 224,40 174.38,40 128.07001,62.299999 93.600006,102.794 59.036999,143.39999 40,197.814 40,256 40,313.54401 60.404999,367.89398 97.456001,409.03799 134.019,449.64001 181.8,472 232,472 c 52.02301,0 111.60001,-23.83099 159.358,-63.74701 24.28,-20.29101 44.36099,-44.12799 58.07401,-68.93298 C 464.40701,312.23099 472,284.20001 472,256 c 0,-22.13499 -4.077,-36.584 -12.11899,-42.94501 z M 201.118,97.772003 c 7.46499,-12.93 18.546,-22.831001 31.19999,-27.876999 13.317,-5.311996 26.78601,-4.693001 37.92801,1.739998 11.142,6.432999 18.41101,17.788002 20.47101,31.975998 1.957,13.483 -1.07599,28.029 -8.543,40.96 -7.46701,12.931 -18.54599,22.83099 -31.2,27.87801 -5.71638,2.3357 -11.66204,3.52838 -17.837,3.578 -7.17601,0.0363 -13.873,-1.73671 -20.091,-5.319 -11.142,-6.43201 -18.411,-17.788 -20.471,-31.976 C 190.618,125.25 193.651,110.7 201.118,97.772003 Z M 120,136 c 2.62643,0 5.22763,0.25619 7.8036,0.76857 2.57596,0.51239 5.0772,1.27113 7.50371,2.27623 2.42652,1.00511 4.73168,2.23724 6.91547,3.69641 2.18382,1.45917 4.20431,3.11734 6.06148,4.9745 1.85716,1.85717 3.51533,3.87766 4.9745,6.06145 1.45917,2.18381 2.6913,4.48897 3.69639,6.91548 1.0051,2.42653 1.76384,4.92777 2.27623,7.50374 0.51241,2.57597 0.7686,5.17719 0.76862,7.80362 -2e-5,2.62643 -0.25621,5.22763 -0.76862,7.8036 -0.51239,2.57596 -1.27113,5.0772 -2.27623,7.50371 -1.00509,2.42652 -2.23722,4.73166 -3.69639,6.91545 -1.45917,2.18383 -3.11734,4.20432 -4.9745,6.06148 -1.85717,1.85716 -3.87766,3.51534 -6.06148,4.9745 -2.18379,1.45917 -4.48895,2.6913 -6.91547,3.6964 -2.42651,1.0051 -4.92775,1.76384 -7.50371,2.27623 -2.57597,0.5124 -5.17717,0.76861 -7.8036,0.76863 -2.62644,-2e-5 -5.22765,-0.25621 -7.80362,-0.76862 -2.57598,-0.5124 -5.07722,-1.27114 -7.50373,-2.27624 -2.42651,-1.0051 -4.731674,-2.23723 -6.915474,-3.6964 -2.1838,-1.45916 -4.204285,-3.11734 -6.061455,-4.9745 -1.857178,-1.85716 -3.51535,-3.87765 -4.974525,-6.06148 -1.459168,-2.18379 -2.6913,-4.48893 -3.696389,-6.91545 -1.005088,-2.42651 -1.763832,-4.92775 -2.276229,-7.50372 C 80.256187,181.22763 79.999992,178.62643 80,176 c 0.003,-2.62561 0.261627,-5.22577 0.776031,-7.80049 0.514397,-2.57472 1.274666,-5.07468 2.280808,-7.49986 1.006142,-2.42519 2.238869,-4.72913 3.698181,-6.91184 1.45932,-2.18269 3.117272,-4.20235 4.973862,-6.05893 1.85659,-1.85658 3.876236,-3.51453 6.058937,-4.97386 2.182701,-1.45932 4.486651,-2.69205 6.911831,-3.69818 2.42518,-1.00615 4.92513,-1.76642 7.49985,-2.28081 2.57473,-0.5144 5.1749,-0.77309 7.8005,-0.77603 z M 64,272 c -4e-6,-2.62643 0.256187,-5.22766 0.768578,-7.80362 0.512397,-2.57599 1.271141,-5.07724 2.276229,-7.50375 1.005097,-2.4265 2.237229,-4.73166 3.696404,-6.91547 1.459175,-2.18379 3.117348,-4.20428 4.974518,-6.06145 1.85717,-1.85716 3.877655,-3.51533 6.061455,-4.97451 2.183799,-1.45917 4.48896,-2.6913 6.915473,-3.6964 2.426514,-1.0051 4.927758,-1.76384 7.503731,-2.27623 C 98.772354,232.2562 101.37356,232 104,232 c 2.62643,0 5.22763,0.2562 7.8036,0.76857 2.57597,0.51239 5.07721,1.27113 7.50372,2.27623 2.42651,1.0051 4.73166,2.23723 6.91546,3.6964 2.18381,1.45918 4.2043,3.11735 6.06148,4.97451 1.85716,1.85717 3.51533,3.87766 4.9745,6.06145 1.45918,2.18381 2.69131,4.48897 3.69641,6.91547 1.00508,2.42651 1.76382,4.92776 2.27621,7.50375 0.51241,2.57596 0.7686,5.17719 0.76862,7.80362 -2e-5,2.6264 -0.25621,5.2276 -0.76862,7.80359 -0.51239,2.57596 -1.27113,5.07718 -2.27621,7.50369 -1.0051,2.42648 -2.23723,4.73166 -3.6964,6.91547 -1.45918,2.18381 -3.11735,4.20428 -4.97451,6.06149 -1.85718,1.85718 -3.87767,3.51535 -6.06148,4.97455 -2.1838,1.45917 -4.48895,2.69128 -6.91546,3.69635 -2.42651,1.0051 -4.92775,1.76382 -7.50372,2.27624 -2.57597,0.51239 -5.17717,0.76859 -7.8036,0.76862 -2.62561,-0.003 -5.225777,-0.26163 -7.800499,-0.77603 -2.57473,-0.51438 -5.074676,-1.27463 -7.499855,-2.28076 -2.425186,-1.00614 -4.729134,-2.23886 -6.911835,-3.69818 -2.182701,-1.45932 -4.202347,-3.11728 -6.058929,-4.97388 -1.856583,-1.8566 -3.514534,-3.87622 -4.973854,-6.05893 -1.459328,-2.18271 -2.692055,-4.48663 -3.698189,-6.9118 -1.006142,-2.42521 -1.766411,-4.92518 -2.280815,-7.49988 C 64.261627,277.2258 64.002953,274.62561 64,272 Z m 73.7,134.26199 c -2.62645,0 -5.22766,-0.25619 -7.80364,-0.76858 -2.57596,-0.51242 -5.07721,-1.27118 -7.50372,-2.27628 -2.42651,-1.00509 -4.73166,-2.23721 -6.91546,-3.69641 -2.1838,-1.45917 -4.20428,-3.11734 -6.06145,-4.97449 -1.85718,-1.85717 -3.51536,-3.87768 -4.97452,-6.06149 -1.45917,-2.18381 -2.6913,-4.48895 -3.6964,-6.91547 -1.005087,-2.42651 -1.76383,-4.92773 -2.27622,-7.50369 -0.51239,-2.57596 -0.768585,-5.17715 -0.768585,-7.80356 0,-2.62646 0.256195,-5.22769 0.768585,-7.80368 0.51239,-2.57595 1.271133,-5.07721 2.27623,-7.50369 1.00509,-2.42654 2.23722,-4.73169 3.6964,-6.91547 1.45917,-2.1838 3.11734,-4.20431 4.97451,-6.06146 1.85717,-1.85718 3.87765,-3.51535 6.06145,-4.97452 2.1838,-1.45916 4.48896,-2.69128 6.91547,-3.69638 2.42653,-1.00509 4.92777,-1.76382 7.50374,-2.27618 2.57598,-0.51242 5.17719,-0.76862 7.80362,-0.76862 2.62642,0 5.22763,0.2562 7.80361,0.76862 2.57597,0.51236 5.07721,1.27109 7.50372,2.27618 2.4265,1.0051 4.73166,2.23722 6.91547,3.69638 2.18379,1.45917 4.20428,3.11734 6.06146,4.97452 1.85716,1.85715 3.51533,3.87766 4.97449,6.06146 1.45918,2.18378 2.69131,4.48893 3.69641,6.91547 1.00509,2.42648 1.76384,4.92774 2.27624,7.50369 0.51239,2.57599 0.76859,5.17722 0.76859,7.80365 -0.003,2.62558 -0.26163,5.22574 -0.77603,7.80045 -0.51439,2.57474 -1.27466,5.07471 -2.28081,7.49988 -1.00614,2.4252 -2.23886,4.72915 -3.6982,6.91186 -1.4593,2.18271 -3.11726,4.20233 -4.97386,6.0589 -1.85658,1.8566 -3.87624,3.51456 -6.05893,4.97388 -2.18269,1.45932 -4.48663,2.69205 -6.91182,3.69818 -2.42517,1.00616 -4.92512,1.76645 -7.49985,2.28082 -2.57472,0.51441 -5.17489,0.77307 -7.8005,0.77603 z m 88.63899,43.85199 c -2.62644,-3e-5 -5.22765,-0.25622 -7.80362,-0.76861 -2.57597,-0.51242 -5.07722,-1.27118 -7.50375,-2.27628 -2.42653,-1.00509 -4.73169,-2.23724 -6.91549,-3.69641 -2.18379,-1.45914 -4.20426,-3.11731 -6.06143,-4.97446 -1.85716,-1.85717 -3.51533,-3.87768 -4.97452,-6.06149 -1.45918,-2.18381 -2.69131,-4.48895 -3.69639,-6.91547 -1.00508,-2.42651 -1.76383,-4.92773 -2.27622,-7.50366 -0.51239,-2.57596 -0.76858,-5.17718 -0.76858,-7.80362 0,-2.62646 0.25619,-5.22766 0.76858,-7.80362 0.51239,-2.57602 1.27114,-5.07727 2.27622,-7.50375 1.00508,-2.42651 2.23721,-4.73169 3.69638,-6.9155 1.45918,-2.1838 3.11737,-4.20428 4.97453,-6.06143 1.85717,-1.85721 3.87764,-3.51538 6.06145,-4.97452 2.18379,-1.45919 4.48894,-2.69131 6.91547,-3.69638 2.42653,-1.00509 4.92778,-1.76382 7.50375,-2.27621 2.57597,-0.51239 5.17718,-0.76859 7.80362,-0.76859 2.62645,0 5.22765,0.2562 7.8036,0.76859 2.57598,0.51239 5.07721,1.27112 7.50371,2.27621 2.4265,1.00507 4.73166,2.23719 6.91547,3.69638 2.1838,1.45914 4.2043,3.11731 6.06148,4.97452 1.85716,1.85715 3.51533,3.87763 4.9745,6.06143 1.45917,2.18381 2.69131,4.48899 3.69641,6.9155 1.0051,2.42648 1.76382,4.92773 2.27624,7.50375 0.51239,2.57596 0.76859,5.17716 0.76859,7.80362 -0.003,2.62546 -0.2616,5.2255 -0.77594,7.80011 -0.51437,2.57462 -1.27457,5.07447 -2.28058,7.49955 -1.00607,2.42507 -2.23868,4.72891 -3.69788,6.91156 -1.45919,2.18261 -3.117,4.20224 -4.97341,6.05883 -1.85643,1.85657 -3.87592,3.51453 -6.05846,4.97388 -2.18253,1.45938 -4.48628,2.69217 -6.91129,3.69839 -2.42501,1.00623 -4.9248,1.76661 -7.49937,2.28116 -2.57457,0.51456 -5.17459,0.77341 -7.80006,0.77655 l -0.003,-3e-5 z M 328,424 c -2.62643,-3e-5 -5.22766,-0.25623 -7.80365,-0.76865 -2.57596,-0.51242 -5.07721,-1.27118 -7.50372,-2.27627 -2.42652,-1.0051 -4.73169,-2.23722 -6.9155,-3.69638 -2.18381,-1.45917 -4.20428,-3.11734 -6.06143,-4.97449 -1.85721,-1.85718 -3.51538,-3.87769 -4.97455,-6.06149 -1.45917,-2.18381 -2.69128,-4.48899 -3.69635,-6.91547 -1.0051,-2.42651 -1.76386,-4.92773 -2.27625,-7.50369 C 288.25616,389.2276 287.99997,386.62643 288,384 c -3e-5,-2.62643 0.25616,-5.22766 0.76855,-7.80362 0.51239,-2.57599 1.27115,-5.07724 2.27625,-7.50375 1.00507,-2.42652 2.23718,-4.73169 3.69635,-6.9155 1.45917,-2.18381 3.11734,-4.20425 4.97455,-6.0614 1.85715,-1.85718 3.87762,-3.51535 6.06143,-4.97455 2.18381,-1.45917 4.48898,-2.69128 6.9155,-3.69638 2.42651,-1.0051 4.92776,-1.76382 7.50372,-2.27621 C 322.77234,344.2562 325.37357,344 328,344 c 2.62643,0 5.22763,0.2562 7.80359,0.76859 2.57596,0.51239 5.07721,1.27111 7.50372,2.27621 2.42652,1.0051 4.73169,2.23721 6.9155,3.69638 2.18381,1.4592 4.20428,3.11737 6.06146,4.97455 1.85715,1.85715 3.51532,3.87759 4.97449,6.0614 1.45917,2.18381 2.69131,4.48898 3.69641,6.9155 1.0051,2.42651 1.76382,4.92776 2.27621,7.50375 0.51239,2.57596 0.76859,5.17719 0.76862,7.80362 -0.003,2.62561 -0.26166,5.2258 -0.77606,7.80054 -0.51438,2.5747 -1.27466,5.07464 -2.28079,7.49984 -1.00614,2.42518 -2.23887,4.7291 -3.69819,6.91181 -1.45932,2.18271 -3.11727,4.20236 -4.97384,6.05896 -1.8566,1.85657 -3.87625,3.51453 -6.05896,4.97385 -2.18268,1.45932 -4.4866,2.69204 -6.91178,3.69818 -2.4252,1.00613 -4.92517,1.76638 -7.4999,2.28079 -2.57474,0.5144 -5.1749,0.77307 -7.80048,0.77603 z m 66.66299,-75.30899 c -2.62643,0 -5.22766,-0.2562 -7.80365,-0.76856 -2.57595,-0.51242 -5.0772,-1.27117 -7.50372,-2.27627 -2.42648,-1.0051 -4.73166,-2.23724 -6.91546,-3.69638 -2.18378,-1.45917 -4.20426,-3.11734 -6.06144,-4.97449 -1.85717,-1.85718 -3.51535,-3.87768 -4.97451,-6.06149 -1.45917,-2.18381 -2.69132,-4.48895 -3.69642,-6.91547 -1.00506,-2.42651 -1.76379,-4.92773 -2.27618,-7.50369 -0.51236,-2.57599 -0.76855,-5.17719 -0.76859,-7.80362 4e-5,-2.62643 0.25623,-5.22766 0.76859,-7.80365 0.51242,-2.57596 1.27115,-5.07718 2.27621,-7.50369 1.0051,-2.42652 2.23722,-4.73169 3.69642,-6.9155 1.45913,-2.18378 3.11731,-4.20425 4.97451,-6.06143 1.85715,-1.85718 3.87763,-3.51535 6.06144,-4.97452 2.1838,-1.45917 4.48895,-2.69131 6.91543,-3.69641 2.42655,-1.0051 4.9278,-1.76386 7.50376,-2.27621 2.57598,-0.51239 5.17721,-0.76859 7.80364,-0.76859 2.62641,0 5.22761,0.2562 7.80359,0.76859 2.57596,0.51235 5.07721,1.27111 7.50373,2.27621 2.42651,1.0051 4.73166,2.23724 6.91543,3.69641 2.18381,1.45917 4.20432,3.11734 6.06153,4.97452 1.85714,1.85715 3.51532,3.87762 4.97445,6.06143 1.4592,2.18378 2.69132,4.48892 3.69641,6.91547 1.0051,2.42651 1.76383,4.92776 2.27622,7.50372 0.51239,2.57596 0.76858,5.17719 0.76861,7.80362 -0.003,2.62564 -0.26159,5.2258 -0.776,7.80054 -0.5144,2.57473 -1.27469,5.07467 -2.28082,7.49987 -1.00613,2.42518 -2.23886,4.7291 -3.69821,6.91181 -1.45932,2.18271 -3.11725,4.20236 -4.97385,6.05893 -1.8566,1.85657 -3.87622,3.51452 -6.05893,4.97384 -2.18271,1.45932 -4.48663,2.69208 -6.91183,3.69822 -2.4252,1.00613 -4.92514,1.76638 -7.49985,2.28079 -2.57471,0.5144 -5.17486,0.77307 -7.80051,0.776 z"
       style="fill:#ffffff;fill-opacity:1;fill-rule:nonzero;stroke:none"
       transform="matrix(0.20258245,0,0,0.20258245,64.70322,216.58185)"
       clip-path="url(#clipPath24)" />
    <path
       id="path25"
       d="m 232.37601,264.53699 c -6.683,0 -13.243,2.389 -17.27701,6.423 -11.659,11.65799 -14.537,34.85501 -14.786,48.685 5.04436,-0.0867 10.06636,-0.46802 15.066,-1.14401 10.613,-1.46201 25.069,-5.008 33.66,-13.60001 7.68701,-7.68701 9.4,-24.54098 0,-33.94199 -4.66801,-4.44033 -10.22235,-6.58099 -16.66299,-6.42199 z"
       style="fill:#2196f3;fill-opacity:1;fill-rule:nonzero;stroke:none"
       transform="matrix(0.20258245,0,0,0.20258245,64.70322,216.58185)"
       clip-path="url(#clipPath26)" />
    <g
       id="g26">
      <g
         id="g27" />
      <path
         id="path27"
         d="m 11.57739,-3.9358472 c 0.65625,0 1.296875,-0.097656 1.921875,-0.296875 0.632812,-0.2070313 1.097656,-0.40625 1.390625,-0.59375 l 0.4375,-0.2968751 1.859375,3.7031252 c -0.0625,0.054687 -0.152344,0.1210937 -0.265625,0.203125 -0.105469,0.074219 -0.355469,0.2148438 -0.75,0.42187502 -0.398438,0.21093751 -0.820313,0.39062501 -1.265625,0.54687502 -0.449219,0.15625001 -1.039063,0.28906251 -1.765625,0.40625002 -0.71875,0.125 -1.46875,0.18750001 -2.25,0.18750001 -1.7734378,0 -3.4531254,-0.42968752 -5.0468754,-1.29687506 C 4.2492645,-1.8264721 2.9602019,-3.0295972 1.9836394,-4.5608472 1.0148894,-6.0920973 0.53051433,-7.7483474 0.53051433,-9.5295974 c 0,-1.3437506 0.28515626,-2.6289066 0.85937507,-3.8593756 0.5703125,-1.238281 1.3320313,-2.300781 2.2812501,-3.1875 0.9453125,-0.882812 2.0546875,-1.585937 3.3281251,-2.109375 1.2695313,-0.53125 2.5664064,-0.796875 3.8906254,-0.796875 1.238281,0 2.378906,0.152344 3.421875,0.453125 1.050781,0.292969 1.789062,0.585938 2.21875,0.875 l 0.65625,0.4375 -1.859375,3.71875 c -0.105469,-0.09375 -0.265625,-0.203125 -0.484375,-0.328125 -0.21875,-0.132812 -0.65625,-0.3125 -1.3125,-0.53125 -0.648438,-0.21875 -1.296875,-0.328125 -1.953125,-0.328125 -1.054688,0 -2.0000003,0.171875 -2.8437503,0.515625 -0.8359376,0.335938 -1.4960938,0.78125 -1.9843751,1.34375 -0.4804688,0.554688 -0.8515625,1.152344 -1.1093751,1.796875 -0.25,0.636719 -0.375,1.289063 -0.375,1.9531256 0,1.4609375 0.5390626,2.7656251 1.6250001,3.9218751 1.09375,1.1484376 2.6562501,1.7187501 4.6875004,1.7187501 z m 7.261719,3.93750015 V -11.888973 h 4.109375 v 1.718751 h 0.04687 c 0.03125,-0.0625 0.07813,-0.140625 0.140625,-0.234375 0.07031,-0.09375 0.222656,-0.253907 0.453125,-0.484376 0.238281,-0.238281 0.488281,-0.445312 0.75,-0.625 0.257813,-0.1875 0.597656,-0.351562 1.015625,-0.5 0.414063,-0.15625 0.84375,-0.234375 1.28125,-0.234375 0.445313,0 0.882813,0.0625 1.3125,0.1875 0.4375,0.125 0.753907,0.25 0.953125,0.375 l 0.328125,0.1875 -1.71875,3.4843756 c -0.511719,-0.4375 -1.21875,-0.65625 -2.125,-0.65625 -0.5,0 -0.929687,0.109375 -1.28125,0.328125 -0.355469,0.21875 -0.605469,0.484375 -0.75,0.796875 -0.148437,0.3046876 -0.25,0.5625001 -0.3125,0.7812501 -0.0625,0.2109375 -0.09375,0.375 -0.09375,0.5 V 0.00165295 Z M 42.409422,-5.3733473 h -8.625 c 0,0.8359376 0.269531,1.4531251 0.8125,1.8593751 0.539063,0.3984375 1.128906,0.59375 1.765625,0.59375 0.664063,0 1.191406,-0.085937 1.578125,-0.265625 0.382813,-0.1757812 0.820313,-0.53125 1.3125,-1.0625 l 2.96875,1.484375 c -1.230468,2.07421887 -3.28125,3.10937517 -6.15625,3.10937517 -1.804688,0 -3.34375,-0.61328128 -4.625,-1.84375007 -1.28125,-1.2265626 -1.921875,-2.7070314 -1.921875,-4.4375002 0,-1.7265626 0.640625,-3.2109376 1.921875,-4.4531247 1.28125,-1.238282 2.820312,-1.859376 4.625,-1.859376 1.882813,0 3.414063,0.546875 4.59375,1.640626 1.1875,1.0937496 1.78125,2.6523434 1.78125,4.6718747 0,0.28125 -0.01172,0.46875 -0.03125,0.5625 z m -8.5,-2.2812501 h 4.515625 c -0.09375,-0.6132812 -0.339844,-1.0859375 -0.734375,-1.421875 -0.398437,-0.3320313 -0.902344,-0.5 -1.515625,-0.5 -0.679687,0 -1.21875,0.1796875 -1.625,0.53125 -0.398438,0.3554687 -0.609375,0.8203125 -0.640625,1.390625 z m 11.253907,6.1875003 c -1.117188,-1.2187501 -1.671875,-2.7070314 -1.671875,-4.4687502 0,-1.7578126 0.554687,-3.2500001 1.671875,-4.4687497 1.113281,-1.226563 2.53125,-1.843751 4.25,-1.843751 1.570312,0 2.867187,0.496094 3.890625,1.484376 v -1.125001 h 4.109375 V 0.00165295 h -4.0625 V -1.3420971 h -0.04687 c -1.023438,1.12500004 -2.320313,1.68750007 -3.890625,1.68750007 -1.71875,0 -3.136719,-0.60156253 -4.25,-1.81250007 z m 3.484375,-6.4843753 c -0.53125,0.5234375 -0.796875,1.1953126 -0.796875,2.0156251 0,0.8242188 0.253906,1.4960938 0.765625,2.0156251 0.507812,0.5117188 1.179687,0.765625 2.015625,0.765625 0.800781,0 1.460937,-0.2578125 1.984375,-0.78125 0.519531,-0.53125 0.78125,-1.1953126 0.78125,-2.0000001 0,-0.8203125 -0.273437,-1.4921876 -0.8125,-2.0156251 -0.53125,-0.5195313 -1.183594,-0.78125 -1.953125,-0.78125 -0.78125,0 -1.445313,0.2617187 -1.984375,0.78125 z m 12.234375,-3.9375006 v -4.4375 h 4.093751 v 4.4375 h 2.5 v 3.1250006 h -2.5 v 3.7812501 c 0,1.0937501 0.3125,1.6406251 0.9375,1.6406251 0.144531,0 0.300781,-0.03125 0.46875,-0.09375 0.175781,-0.0625 0.3125,-0.125 0.40625,-0.1875 l 0.140625,-0.078125 1.015625,3.31250014 c -0.875,0.48828127 -1.882813,0.73437503 -3.015625,0.73437503 -0.773438,0 -1.437501,-0.13671876 -2.000001,-0.40625002 -0.554687,-0.26953126 -0.976562,-0.62890628 -1.265625,-1.07812505 -0.28125,-0.4570313 -0.484375,-0.9375 -0.609375,-1.4375001 -0.117187,-0.5078125 -0.171875,-1.0507812 -0.171875,-1.625 v -4.5625002 h -1.71875 v -3.1250006 z m 8.839844,-6.640625 c 0.476563,-0.476562 1.050782,-0.71875 1.718751,-0.71875 0.664062,0 1.238281,0.242188 1.71875,0.71875 0.476562,0.480469 0.71875,1.054688 0.71875,1.71875 0,0.667969 -0.242188,1.242188 -0.71875,1.71875 -0.480469,0.480469 -1.054688,0.71875 -1.71875,0.71875 -0.667969,0 -1.242188,-0.238281 -1.718751,-0.71875 -0.480468,-0.476562 -0.71875,-1.050781 -0.71875,-1.71875 0,-0.664062 0.238282,-1.238281 0.71875,-1.71875 z m -0.390625,6.640625 V 0.00165295 h 4.109376 V -11.888973 Z m 10.01172,0 2.890625,6.4687507 2.90625,-6.4687507 h 4.875 L 83.624268,0.00165295 h -2.78125 L 74.468017,-11.888973 Z m 23.613282,6.5156257 h -8.625001 c 0,0.8359376 0.269532,1.4531251 0.812501,1.8593751 0.539062,0.3984375 1.128906,0.59375 1.765625,0.59375 0.664062,0 1.191406,-0.085937 1.578125,-0.265625 0.382812,-0.1757812 0.820312,-0.53125 1.3125,-1.0625 l 2.96875,1.484375 c -1.23047,2.07421887 -3.28125,3.10937517 -6.15625,3.10937517 -1.804688,0 -3.343751,-0.61328128 -4.625001,-1.84375007 -1.28125,-1.2265626 -1.921875,-2.7070314 -1.921875,-4.4375002 0,-1.7265626 0.640625,-3.2109376 1.921875,-4.4531247 1.28125,-1.238282 2.820313,-1.859376 4.625001,-1.859376 1.882812,0 3.41406,0.546875 4.59375,1.640626 1.1875,1.0937496 1.78125,2.6523434 1.78125,4.6718747 0,0.28125 -0.0117,0.46875 -0.0312,0.5625 z m -8.500001,-2.2812501 h 4.515626 c -0.09375,-0.6132812 -0.339844,-1.0859375 -0.734375,-1.421875 -0.398438,-0.3320313 -0.902344,-0.5 -1.515625,-0.5 -0.679688,0 -1.21875,0.1796875 -1.625,0.53125 -0.398438,0.3554687 -0.609376,0.8203125 -0.640626,1.390625 z m 0,0"
         style="fill:#ffffff;fill-opacity:1;fill-rule:nonzero;stroke:none"
         aria-label="Creative"
         transform="translate(176.62183,260.44366)" />
      <g
         id="g28" />
      <path
         id="path28"
         d="m 1.3898894,-19.123347 h 5.5468752 c 2.6562501,0 4.9257814,0.90625 6.8125004,2.71875 1.882812,1.8125 2.828125,4.089844 2.828125,6.8281257 0,2.7500001 -0.945313,5.0390627 -2.828125,6.8593753 -1.875,1.81250004 -4.1484378,2.71875008 -6.8125004,2.71875008 H 1.3898894 Z m 4.3593751,15.2343759 h 0.6718751 c 1.59375,0 2.8945313,-0.5351563 3.9062504,-1.6093751 1.007812,-1.0820312 1.523437,-2.4296876 1.546875,-4.0468751 0,-1.6249997 -0.511719,-2.9765627 -1.53125,-4.0624997 -1.0117191,-1.082032 -2.3203129,-1.625001 -3.9218754,-1.625001 H 5.7492645 Z m 24.7734385,-1.484375 h -8.625 c 0,0.8359375 0.269531,1.453125 0.8125,1.859375 0.539062,0.3984375 1.128906,0.5937501 1.765625,0.5937501 0.664062,0 1.191406,-0.085937 1.578125,-0.2656251 0.382812,-0.1757812 0.820312,-0.53125 1.3125,-1.0625 l 2.96875,1.4843751 c -1.230469,2.0742188 -3.28125,3.10937509 -6.15625,3.10937509 -1.804688,0 -3.34375,-0.61328127 -4.625,-1.84375009 -1.28125,-1.2265625 -1.921875,-2.7070313 -1.921875,-4.4375002 0,-1.7265625 0.640625,-3.2109376 1.921875,-4.4531248 1.28125,-1.238282 2.820312,-1.859375 4.625,-1.859375 1.882812,0 3.414062,0.546875 4.59375,1.640625 1.1875,1.0937497 1.78125,2.6523435 1.78125,4.6718748 0,0.28125 -0.01172,0.46875 -0.03125,0.5625001 z m -8.5,-2.2812501 h 4.515625 c -0.09375,-0.6132813 -0.339844,-1.0859376 -0.734375,-1.4218751 -0.398438,-0.3320313 -0.902344,-0.5 -1.515625,-0.5 -0.679688,0 -1.21875,0.1796875 -1.625,0.53125 -0.398438,0.3554688 -0.609375,0.8203125 -0.640625,1.3906251 z m 15.613282,-4.5937498 c 0.675781,0 1.347656,0.07813 2.015625,0.234375 0.664062,0.15625 1.160156,0.3125 1.484375,0.46875 l 0.484375,0.234375 -1.34375,2.6874997 c -0.929688,-0.5 -1.808594,-0.75 -2.640625,-0.75 -0.46875,0 -0.804688,0.054687 -1,0.15625 -0.1875,0.1054687 -0.28125,0.2929688 -0.28125,0.5625 0,0.0625 0.0039,0.125 0.01563,0.1875 0.01953,0.0625 0.05078,0.125 0.09375,0.1875 0.05078,0.054687 0.09766,0.1015625 0.140625,0.140625 0.03906,0.03125 0.101562,0.074219 0.1875,0.125 0.09375,0.042969 0.164062,0.074219 0.21875,0.09375 0.0625,0.023437 0.15625,0.058594 0.28125,0.1093751 0.125,0.042969 0.210937,0.078125 0.265625,0.109375 0.0625,0.023437 0.164062,0.058594 0.3125,0.109375 0.15625,0.042969 0.269531,0.070312 0.34375,0.078125 0.476562,0.1484375 0.894531,0.3046875 1.25,0.46875 0.351562,0.1679687 0.726562,0.4023438 1.125,0.703125 0.394531,0.2929688 0.703125,0.6640625 0.921875,1.1093751 0.21875,0.4492187 0.328125,0.9609375 0.328125,1.53125 0,2.6992189 -1.882813,4.04687519 -5.640625,4.04687519 -0.855469,0 -1.667969,-0.1328125 -2.437501,-0.39062502 -0.761718,-0.25781251 -1.308593,-0.51953127 -1.640625,-0.78125003 l -0.51563,-0.42187504 1.671875,-2.8125001 c 0.125,0.1171875 0.285157,0.2460938 0.484375,0.390625 0.195313,0.1484375 0.554688,0.3515625 1.078126,0.609375 0.53125,0.2500001 0.988281,0.3750001 1.375,0.3750001 0.851562,0 1.28125,-0.2851563 1.28125,-0.8593751 0,-0.2578125 -0.109375,-0.4609375 -0.328125,-0.609375 -0.210938,-0.1445313 -0.574219,-0.3125 -1.09375,-0.5 -0.523438,-0.1875 -0.929688,-0.359375 -1.21875,-0.515625 -0.742188,-0.3828126 -1.328126,-0.8203126 -1.765626,-1.3125001 -0.429687,-0.4882813 -0.640625,-1.1328125 -0.640625,-1.9375001 0,-1.1953125 0.460938,-2.1328127 1.390625,-2.8124997 0.937501,-0.675782 2.203126,-1.015625 3.796876,-1.015625 z m 6.621094,-6.281251 c 0.476562,-0.476562 1.050781,-0.71875 1.71875,-0.71875 0.664062,0 1.238281,0.242188 1.71875,0.71875 0.476562,0.480469 0.71875,1.054688 0.71875,1.71875 0,0.667969 -0.242188,1.242188 -0.71875,1.71875 -0.480469,0.480469 -1.054688,0.71875 -1.71875,0.71875 -0.667969,0 -1.242188,-0.238281 -1.71875,-0.71875 -0.480469,-0.476562 -0.71875,-1.050781 -0.71875,-1.71875 0,-0.664062 0.238281,-1.238281 0.71875,-1.71875 z m -0.390625,6.640626 V 0.00165408 h 4.109375 V -11.888971 Z m 6.464844,14.8125002 3.359375,-1.6406251 c 0.613281,1.0195313 1.6875,1.5312501 3.21875,1.5312501 0.71875,0 1.378906,-0.2304688 1.984375,-0.6875 0.613281,-0.4609376 0.921875,-1.16406258 0.921875,-2.10937512 v -0.87500004 c -0.730469,0.80468753 -2.027344,1.20312505 -3.890625,1.20312505 -1.71875,0 -3.136719,-0.60156252 -4.25,-1.81250009 -1.117188,-1.21875 -1.671875,-2.7070313 -1.671875,-4.4687502 0,-1.7578125 0.554687,-3.2500001 1.671875,-4.4687498 1.113281,-1.226563 2.53125,-1.84375 4.25,-1.84375 1.519531,0 2.789063,0.476562 3.8125,1.421875 h 0.07813 v -1.0625 h 4.109375 V 0.32977909 c 0,1.92578131 -0.648437,3.41406261 -1.9375,4.46875021 -1.28125,1.0507813 -2.976562,1.578125 -5.078125,1.578125 -3.398438,0 -5.589844,-1.1523438 -6.578125,-3.4531251 z m 4.828125,-10.8750005 c -0.53125,0.5234376 -0.796875,1.1953126 -0.796875,2.0156251 0,0.8242188 0.253906,1.4960938 0.765625,2.0156251 0.507812,0.5117188 1.179687,0.765625 2.015625,0.765625 0.800781,0 1.460938,-0.2578125 1.984375,-0.78125 0.519531,-0.53125 0.78125,-1.1953125 0.78125,-2.0000001 0,-0.8203125 -0.273437,-1.4921875 -0.8125,-2.0156251 -0.53125,-0.5195312 -1.183594,-0.78125 -1.953125,-0.78125 -0.78125,0 -1.445313,0.2617188 -1.984375,0.78125 z m 11.53125,7.95312538 V -11.888971 h 4.109376 v 1.25 h 0.04687 c 1.0625,-1.070313 2.195312,-1.609375 3.40625,-1.609375 0.582031,0 1.164062,0.07813 1.75,0.234375 0.582031,0.15625 1.140625,0.398437 1.671875,0.71875 0.53125,0.324218 0.960937,0.789062 1.296875,1.3906247 0.332031,0.59375 0.5,1.28125 0.5,2.0625001 v 7.84375028 h -4.10937 V -6.7170962 c 0,-0.625 -0.199219,-1.1640626 -0.59375,-1.6250001 -0.398438,-0.46875 -0.90625,-0.703125 -1.53125,-0.703125 -0.625,0 -1.1875,0.2421875 -1.6875,0.71875 -0.5,0.4804688 -0.75,1.0156251 -0.75,1.6093751 V 0.00165408 Z M 87.178955,-12.248346 c 0.675782,0 1.347657,0.07813 2.015626,0.234375 0.664062,0.15625 1.160156,0.3125 1.484375,0.46875 l 0.484375,0.234375 -1.34375,2.6874997 c -0.929688,-0.5 -1.808594,-0.75 -2.640626,-0.75 -0.46875,0 -0.804687,0.054687 -1,0.15625 -0.1875,0.1054687 -0.28125,0.2929688 -0.28125,0.5625 0,0.0625 0.0039,0.125 0.01563,0.1875 0.01953,0.0625 0.05078,0.125 0.09375,0.1875 0.05078,0.054687 0.09766,0.1015625 0.140625,0.140625 0.03906,0.03125 0.101563,0.074219 0.1875,0.125 0.09375,0.042969 0.164063,0.074219 0.21875,0.09375 0.0625,0.023437 0.15625,0.058594 0.28125,0.1093751 0.125,0.042969 0.210938,0.078125 0.265625,0.109375 0.0625,0.023437 0.164063,0.058594 0.3125,0.109375 0.15625,0.042969 0.269532,0.070312 0.34375,0.078125 0.476563,0.1484375 0.894532,0.3046875 1.250001,0.46875 0.351562,0.1679687 0.726562,0.4023438 1.125,0.703125 0.394531,0.2929688 0.703125,0.6640625 0.921875,1.1093751 0.21875,0.4492187 0.328125,0.9609375 0.328125,1.53125 0,2.6992189 -1.882813,4.04687519 -5.640626,4.04687519 -0.855468,0 -1.667968,-0.1328125 -2.4375,-0.39062502 -0.761724,-0.25781251 -1.308599,-0.51953127 -1.64063,-0.78125003 L 81.147705,-1.248346 82.81958,-4.0608461 c 0.125,0.1171875 0.285157,0.2460938 0.484375,0.390625 0.195313,0.1484375 0.554688,0.3515625 1.078125,0.609375 0.53125,0.2500001 0.988282,0.3750001 1.375,0.3750001 0.851563,0 1.28125,-0.2851563 1.28125,-0.8593751 0,-0.2578125 -0.109375,-0.4609375 -0.328125,-0.609375 -0.210937,-0.1445313 -0.574218,-0.3125 -1.09375,-0.5 -0.523437,-0.1875 -0.929687,-0.359375 -1.21875,-0.515625 -0.742187,-0.3828126 -1.328125,-0.8203126 -1.765625,-1.3125001 -0.429687,-0.4882813 -0.640625,-1.1328125 -0.640625,-1.9375001 0,-1.1953125 0.460938,-2.1328127 1.390625,-2.8124997 0.9375,-0.675782 2.203125,-1.015625 3.796875,-1.015625 z m 0,0"
         style="fill:#2196f3;fill-opacity:1;fill-rule:nonzero;stroke:none"
         aria-label="Designs"
         transform="translate(176.62183,287.44366)" />
    </g>
  </g>
</svg>
